     <svg width="214" height="36" viewBox="0 0 214 36" fill="none" xmlns="http://www.w3.org/2000/svg">
                    <g clip-path="url(#clip0_1_6121)">
                        <path
                            d="M28.6193 7.88542C28.462 7.41996 28.3182 7.01838 28.2687 6.88148C28.035 6.2198 27.8057 5.55812 27.554 4.90557C27.4461 4.62721 27.3068 4.38991 27.1315 4.18913C27.0596 4.17088 26.9877 4.1435 26.9247 4.10243C26.6056 3.90164 26.2909 3.69629 25.9763 3.49094C25.9134 3.47725 25.8504 3.459 25.7875 3.44987C24.466 3.19889 23.131 2.98441 21.805 2.74712C20.933 2.59197 20.0654 2.45507 19.1799 2.58284C21.4903 2.8247 23.6479 3.61415 25.6212 5.01509C26.7854 5.84561 27.7878 6.80391 28.6238 7.88998L28.6193 7.88542Z"
                            fill="url(#paint0_linear_1_6121)" />
                        <path
                            d="M33.3212 12.7864C32.566 12.5126 31.7884 12.6312 31.0242 12.6038C31.0108 12.6038 31.0018 12.6038 30.9883 12.6038C31.3614 13.8907 31.5142 15.2141 31.5457 16.5557C31.5546 16.939 31.5546 17.3223 31.5546 17.7056C32.094 17.1352 32.6334 16.5648 33.1683 15.9944C33.474 15.6658 33.8066 15.3418 34.0628 14.9722C34.6921 14.0504 34.3595 13.1697 33.3167 12.7864H33.3212Z"
                            fill="url(#paint1_linear_1_6121)" />
                        <path
                            d="M30.0848 17.4C30.1432 15.6796 29.9589 13.7402 29.2173 11.892C27.8733 8.56538 25.5584 6.2107 22.2771 4.85084C20.6724 4.18459 18.9912 3.92448 17.2607 3.98381C16.6134 4.00662 16.2358 3.64156 16.3392 3.12134C16.3572 3.00726 16.3977 2.91143 16.4471 2.83385C15.9617 2.73802 15.5436 2.46422 15.1975 2.01702C15.0222 1.79341 14.8514 1.56525 14.6806 1.33252C13.395 1.59719 12.1454 2.0444 10.9363 2.66501C7.0212 4.69112 4.43211 7.86263 3.15105 12.1339C2.81393 13.2656 2.64312 14.4292 2.56671 15.6066C2.55322 15.7572 2.53075 15.9078 2.47681 16.0401C2.53524 16.1085 2.59817 16.1816 2.6611 16.25C3.06115 16.6926 3.50615 17.0395 3.97812 17.2904C3.97812 16.7155 3.9916 16.1405 4.03206 15.5701C4.23433 12.5309 5.29514 9.85679 7.20999 7.52038C7.41226 7.27852 7.61453 7.03666 7.84827 6.82219C8.07302 6.61684 8.34721 6.61228 8.61241 6.76287C8.85514 6.90433 8.981 7.1188 8.981 7.5295C8.981 7.68922 8.81918 7.87632 8.65287 8.06341C7.47519 9.39134 6.59867 10.8972 6.05479 12.5993C5.63676 13.8908 5.43898 15.2141 5.44347 16.5694C5.44347 16.9619 5.44347 17.3498 5.44347 17.7422C5.9514 17.8015 6.48181 17.7696 7.03918 17.6464C7.85726 17.4684 8.64388 17.149 9.44398 16.898C9.56534 16.8615 9.68221 16.8341 9.79908 16.8159C9.79908 16.6698 9.79908 16.5284 9.79908 16.3823C9.87999 12.2662 12.8467 8.93044 16.8651 8.43304C21.0859 7.9037 25.1134 11.0798 25.6618 15.3465C25.7831 16.3185 25.7067 17.2904 25.7382 18.2579C25.8326 21.1236 25.5044 23.9392 24.6369 26.6772C23.6076 29.9354 21.9489 32.8331 19.688 35.3703C19.4992 35.5802 19.3194 35.7947 19.1306 36H19.4902C20.1375 35.7262 20.8072 35.4935 21.423 35.1604C21.9309 34.882 22.4703 34.558 22.8254 34.1154C23.5716 33.1982 24.2324 32.2034 24.8841 31.2131C25.2212 30.702 25.5449 30.1818 25.882 29.6753C25.4999 29.5293 25.3336 29.1277 25.4999 28.6622C25.8236 27.7359 26.1202 26.8004 26.4034 25.8649C26.5338 25.436 26.8619 25.2489 27.253 25.3447C27.6216 25.436 27.8013 25.6869 27.8103 26.1707C27.6845 26.6224 27.5406 27.17 27.3743 27.7085C27.3743 27.7222 27.3653 27.7313 27.3608 27.745C27.3653 27.7404 27.3698 27.7313 27.3743 27.7267C27.9362 27.1244 28.2419 26.3577 28.4396 25.5455C28.7183 24.3818 28.7273 23.1999 28.6869 22.018C28.6599 21.4476 28.8127 20.9548 29.1184 20.4984C29.3027 20.2246 29.4735 19.9417 29.6937 19.709C29.8331 19.563 29.9679 19.4169 30.0983 19.2755C30.0983 18.737 30.0983 18.1803 30.0983 17.4091L30.0848 17.4ZM9.98787 4.94667C10.5407 4.55878 11.1161 4.21197 11.7184 3.91992C12.4286 3.57311 13.1568 3.25824 13.9299 3.05745C14.4289 2.92968 14.775 3.09396 14.9008 3.53204C15.0222 3.93817 14.8289 4.29411 14.357 4.4447C13.0849 4.85084 11.8937 5.41212 10.788 6.16964C10.6621 6.25634 10.5273 6.32479 10.3654 6.32935C10.0598 6.28828 9.77211 6.18789 9.66423 5.8502C9.54736 5.47601 9.67322 5.17027 9.98787 4.94667ZM16.4291 6.99559C16.0965 7.0823 15.7549 7.12793 15.4268 7.2192C11.2779 8.36915 8.54499 11.851 8.34271 16.2728C8.32923 16.6379 8.27529 16.971 7.9067 17.1398C7.45271 17.3452 6.96277 17.0577 6.91782 16.5466C6.89984 16.3413 6.91782 16.1314 6.91782 15.9214C7.26393 11.8464 9.14282 8.76616 12.6624 6.74918C13.6602 6.17876 14.739 5.82282 15.8583 5.61747C15.9796 5.59466 16.101 5.5764 16.2224 5.57184C16.6584 5.55359 16.964 5.78632 17.0225 6.17876C17.0809 6.55752 16.8472 6.89064 16.4291 7.00016V6.99559ZM22.767 7.46105C22.6277 7.8033 22.2726 7.9904 21.8905 7.83981C20.9645 7.47474 20.0251 7.15987 19.0407 6.97734C18.6451 6.90433 18.4519 6.54839 18.5058 6.16051C18.5642 5.77719 18.8744 5.5399 19.3598 5.55815C20.4072 5.70874 21.468 6.01448 22.4569 6.53014C22.8075 6.71267 22.9108 7.10511 22.767 7.46105ZM28.4396 22.7801C28.4306 22.8486 28.4261 22.9216 28.4172 22.9855C28.3273 23.5102 28.0306 23.7977 27.6216 23.7567C27.1945 23.7156 26.9113 23.3642 26.9788 22.8166C27.2125 20.827 27.199 18.8283 27.2035 16.8295C27.2035 14.7532 26.7046 12.823 25.5449 11.0935C25.1313 10.482 24.6594 9.92981 24.1335 9.42328C23.8683 9.1723 23.7559 8.87112 23.8952 8.51974C24.0885 8.03603 24.6729 7.93107 25.0909 8.31896C25.9764 9.14035 26.7091 10.085 27.2889 11.1528C28.2329 12.896 28.6689 14.7578 28.6419 16.7428C28.6329 17.2813 28.6419 17.8243 28.6419 18.3674C28.6554 19.8368 28.6284 21.3107 28.4531 22.771L28.4396 22.7801Z"
                            fill="url(#paint2_linear_1_6121)" />
                        <path
                            d="M10.0194 1.48753C11.1611 0.871483 12.3433 0.406025 13.5839 0.086593C13.4265 0.0181433 13.2512 -0.0137999 13.0625 0.00445332C12.4781 0.0546498 11.8938 0.127663 11.3229 0.255436C10.2891 0.488165 9.26423 0.78478 8.19892 0.862357C8.10004 0.92168 8.00115 0.985566 7.90675 1.04945C6.42792 2.03513 5.09292 3.19877 3.9512 4.5769C3.80736 4.95109 3.57362 5.27508 3.27696 5.5717C2.57574 6.26532 1.87004 6.96351 1.12837 7.6115C0.117007 8.49679 -0.130215 9.62392 0.058573 10.8834C0.242866 12.1201 0.647411 13.2609 1.24074 14.3013C1.42953 12.8867 1.75317 11.504 2.29256 10.1624C3.83882 6.32465 6.41893 3.42238 10.0194 1.48753Z"
                            fill="url(#paint3_linear_1_6121)" />
                        <path
                            d="M21.378 19.4488C21.378 18.2943 21.4724 17.1398 21.3285 15.9944C21.0903 14.1098 19.4991 12.7545 17.6651 12.8229C15.7638 12.8914 14.267 14.3516 14.1636 16.2728C14.1141 17.1581 14.1456 18.0525 14.1456 18.9423C14.1456 19.7728 14.0737 20.5806 13.9343 21.3563C13.9523 21.3746 13.9703 21.3974 13.9928 21.4156C14.1501 21.5845 14.231 21.8446 14.2894 22.0819C14.3883 22.488 14.4333 22.9078 14.5052 23.3231C14.5052 23.3368 14.5052 23.3505 14.5142 23.3687C14.5142 23.7064 14.5142 24.0897 14.5277 24.4366C14.9996 23.3185 15.3143 22.1366 15.4716 20.8863C15.6469 19.5036 15.5615 18.1118 15.5795 16.7246C15.593 15.5427 16.1234 14.7213 17.0853 14.3973C18.4203 13.9546 19.8047 14.8445 19.9081 16.2682C19.9665 17.0987 19.9216 17.9338 19.9216 18.7644C20.007 21.6666 19.4901 24.4457 18.263 27.0787C17.5123 28.6804 16.5324 30.1316 15.3682 31.4504C15.3008 31.5234 15.2379 31.5964 15.1704 31.674C15.3907 32.1394 15.6424 32.5866 15.9256 33.0202C17.6247 31.1629 19.0361 29.1231 19.98 26.7593C20.924 24.4183 21.378 21.9769 21.387 19.4534L21.378 19.4488Z"
                            fill="url(#paint4_linear_1_6121)" />
                        <path
                            d="M18.4337 20.5121C18.5056 19.2618 18.4832 18.0114 18.4832 16.7611C18.4832 16.5831 18.4697 16.396 18.4157 16.2317C18.3124 15.9214 18.0741 15.7617 17.7595 15.7617C17.4448 15.7617 17.2156 15.9214 17.0987 16.2272C17.0223 16.428 17.0313 16.6333 17.0313 16.8432C17.0178 18.4815 17.1032 20.1197 16.8155 21.7488C16.429 23.9072 15.6289 25.8603 14.4287 27.6126C14.4197 27.9458 14.4062 28.2789 14.4062 28.612C14.4062 29.0273 14.4467 29.4562 14.5366 29.8624C14.5546 29.9354 14.5726 30.013 14.5905 30.086C15.7188 28.7215 16.6582 27.2339 17.3145 25.5546C17.9528 23.9346 18.3348 22.2553 18.4337 20.5076V20.5121Z"
                            fill="url(#paint5_linear_1_6121)" />
                        <path
                            d="M20.9285 31.2907C22.7759 28.2835 23.8861 25.0253 24.1873 21.4887C24.3446 19.6177 24.3221 17.7377 24.2412 15.8667C24.1199 12.9599 21.5892 10.2903 18.699 9.92983C15.2468 9.49175 12.2352 11.5863 11.4037 15.0088C11.2643 15.5792 11.2553 16.1633 11.2463 16.7474C11.2463 16.9071 11.2463 17.0623 11.2463 17.222C11.3183 17.2859 11.3902 17.3543 11.4576 17.4319C11.7767 17.7833 12.0824 18.162 12.2982 18.5773C12.4285 18.8329 12.5499 19.0884 12.6757 19.3394C12.7027 18.445 12.6757 17.546 12.6847 16.6516C12.6937 13.9136 14.3973 11.8601 17.0538 11.381C19.6879 10.9109 22.4433 12.9964 22.7804 15.7024C22.8927 16.574 22.8208 17.4502 22.8478 18.3263C22.9287 21.1693 22.5646 23.9483 21.5937 26.627C20.6093 29.3376 19.1035 31.7105 17.1707 33.8188C17.0448 33.9557 16.919 34.0926 16.7976 34.2295C17.1167 34.6311 17.4494 35.0235 17.8314 35.3566C17.8764 35.2471 17.9483 35.1376 18.0427 35.0281C19.0945 33.8553 20.0969 32.646 20.9285 31.2953V31.2907Z"
                            fill="url(#paint6_linear_1_6121)" />
                        <path
                            d="M49.5567 10.0666V19.175C49.5567 19.3804 49.7725 19.5036 49.9433 19.394L56.488 15.3053C56.5239 15.2779 56.5779 15.2688 56.6228 15.2688H57.8499C58.1061 15.2688 58.196 15.6019 57.9893 15.7434L52.0065 19.7135C51.8582 19.8093 51.8492 20.0192 51.984 20.1287L58.6905 25.7279C58.8748 25.8831 58.7669 26.1888 58.5332 26.1888H57.1802C57.1262 26.1888 57.0723 26.1706 57.0273 26.1341L49.9793 20.5121C49.813 20.3797 49.5702 20.4984 49.5702 20.7128V25.9287C49.5702 26.0747 49.4534 26.1888 49.314 26.1888H48.2083C48.0689 26.1888 47.9565 26.0747 47.9565 25.9287V10.0666C47.9565 9.92516 48.0689 9.80652 48.2083 9.80652H49.314C49.4489 9.80652 49.5702 9.92516 49.5702 10.0666H49.5567Z"
                            fill="white" />
                        <path
                            d="M69.0243 24.5506C70.674 24.5506 72.0135 24.2448 73.0563 23.6288C73.2001 23.5467 73.3755 23.6105 73.4249 23.7657L73.798 24.902C73.8339 25.016 73.789 25.1438 73.6901 25.2077C72.6203 25.8648 71.0606 26.1888 69.0198 26.1888C65.0733 26.1888 63.1045 24.3681 63.1045 20.7265C63.1045 17.085 65.0733 15.2688 69.0198 15.2688C72.5124 15.2688 74.3104 16.9983 74.3958 20.4573C74.3958 20.6033 74.2789 20.7265 74.1351 20.7265H64.9789C64.835 20.7265 64.7137 20.8543 64.7182 20.9958C64.8171 23.3641 66.251 24.5506 69.0153 24.5506H69.0243ZM65.2711 19.0883H72.2158C72.3866 19.0883 72.5034 18.9195 72.463 18.7506C72.1438 17.5185 70.9976 16.9025 69.0198 16.9025C66.7139 16.9025 65.3789 17.5185 65.0238 18.746C64.9744 18.9149 65.0958 19.0837 65.2666 19.0837L65.2711 19.0883Z"
                            fill="white" />
                        <path
                            d="M80.3113 15.529V17.4547C80.9991 16.0583 82.3476 15.3373 84.3523 15.2734C84.4961 15.2734 84.6175 15.3875 84.6175 15.5335V16.6515C84.6175 16.793 84.5006 16.9071 84.3613 16.9071C81.6643 16.971 80.3113 18.0616 80.3113 20.179V25.9242C80.3113 26.0702 80.199 26.1843 80.0596 26.1843H78.9539C78.8145 26.1843 78.7021 26.0702 78.7021 25.9242V15.5198C78.7021 15.3784 78.819 15.2643 78.9539 15.2643H80.0596C80.199 15.2643 80.3113 15.3784 80.3113 15.5198V15.529Z"
                            fill="white" />
                        <path
                            d="M90.4878 15.5289V17.4546C91.207 15.9898 92.6634 15.2597 94.8434 15.2734C97.7921 15.2916 100.17 17.7376 100.17 20.7311V25.9333C100.17 26.0793 100.058 26.1934 99.9137 26.1934H98.8259C98.6866 26.1934 98.5697 26.0793 98.5697 25.9333L98.5517 20.7311C98.5517 18.1848 97.2932 16.9116 94.785 16.9116C91.9172 16.9116 90.4833 18.1848 90.4833 20.7311L90.4923 25.9333C90.4923 26.0793 90.3799 26.1934 90.2406 26.1934H89.1258C88.982 26.1934 88.8696 26.0793 88.8696 25.9333V15.5289C88.8696 15.3875 88.982 15.2734 89.1258 15.2734H90.2271C90.3709 15.2734 90.4833 15.3875 90.4833 15.5289H90.4878Z"
                            fill="white" />
                        <path
                            d="M110.356 24.5506C112.005 24.5506 113.345 24.2448 114.392 23.6288C114.531 23.5467 114.711 23.6105 114.761 23.7657L115.134 24.902C115.17 25.016 115.134 25.1438 115.026 25.2077C113.956 25.8648 112.396 26.1888 110.356 26.1888C106.413 26.1888 104.44 24.3681 104.44 20.7265C104.44 17.085 106.413 15.2688 110.356 15.2688C113.853 15.2688 115.646 16.9983 115.731 20.4573C115.731 20.6033 115.615 20.7265 115.471 20.7265H106.31C106.171 20.7265 106.049 20.8543 106.054 20.9958C106.157 23.3641 107.587 24.5506 110.351 24.5506H110.356ZM106.607 19.0883H113.551C113.727 19.0883 113.844 18.9195 113.794 18.7506C113.48 17.5185 112.333 16.9025 110.351 16.9025C108.045 16.9025 106.715 17.5185 106.36 18.746C106.31 18.9149 106.431 19.0837 106.602 19.0837L106.607 19.0883Z"
                            fill="white" />
                        <path
                            d="M124.852 10.0667V24.2951C124.852 24.4366 124.964 24.5552 125.108 24.5552H127.823C127.962 24.5552 128.079 24.6739 128.079 24.8153V25.9334C128.079 26.0794 127.962 26.1935 127.823 26.1935H120.267C120.123 26.1935 120.011 26.0794 120.011 25.9334V24.8153C120.011 24.6739 120.123 24.5552 120.267 24.5552H122.982C123.121 24.5552 123.238 24.4411 123.238 24.2951V11.7095C123.238 11.5635 123.121 11.4494 122.982 11.4494H120.806C120.663 11.4494 120.55 11.3353 120.55 11.1938V10.0713C120.55 9.9298 120.667 9.81116 120.806 9.81116H124.6C124.739 9.81116 124.856 9.9298 124.856 10.0713L124.852 10.0667Z"
                            fill="white" />
                        <path
                            d="M147.848 19.0929V25.9333C147.848 26.0794 147.736 26.1935 147.592 26.1935H146.495C146.351 26.1935 146.234 26.0794 146.234 25.9333V25.5637C146.234 25.3629 146.027 25.2443 145.848 25.3447C144.863 25.9105 143.735 26.1935 142.472 26.1935C139.964 26.1935 138.71 25.1028 138.71 22.917C138.71 20.7312 141.137 19.4991 145.987 19.1157C146.117 19.1021 146.243 18.9834 146.225 18.842C146.104 17.5551 145.034 16.9117 143.011 16.9117C142.022 16.9117 141.038 17.2174 140.054 17.8243C139.914 17.911 139.73 17.8471 139.681 17.692L139.312 16.5603C139.272 16.4462 139.317 16.3184 139.415 16.2545C140.454 15.602 141.649 15.2734 143.016 15.2734C146.234 15.2734 147.852 16.5466 147.852 19.0929H147.848ZM140.319 22.917C140.319 24.0076 141.034 24.5552 142.468 24.5552C143.901 24.5552 145.066 24.2175 146.117 23.5422C146.189 23.4965 146.23 23.4098 146.23 23.3186V21.0187C146.23 20.8681 146.099 20.7449 145.947 20.7585C142.193 21.1327 140.319 21.8537 140.319 22.917Z"
                            fill="white" />
                        <path
                            d="M159.18 11.4494C157.445 11.4494 156.55 12.6313 156.492 14.9905C156.492 15.1365 156.604 15.2598 156.748 15.2598L161.611 15.2689C161.746 15.2689 161.868 15.383 161.868 15.529V16.6516C161.868 16.793 161.751 16.9117 161.611 16.9117H156.743C156.6 16.9117 156.492 17.0258 156.492 17.1672V25.9334C156.492 26.0794 156.375 26.1935 156.235 26.1935H155.13C154.986 26.1935 154.874 26.0794 154.874 25.9334V17.1672C154.874 17.0258 154.757 16.9117 154.622 16.9117H152.442C152.302 16.9117 152.186 16.7976 152.186 16.6516V15.529C152.186 15.3875 152.302 15.2734 152.442 15.2734H154.622C154.766 15.2734 154.874 15.1594 154.874 15.0179C154.941 11.5498 156.375 9.81116 159.18 9.81116C160.533 9.81116 161.567 10.1397 162.286 10.7877C162.358 10.8562 162.38 10.9657 162.349 11.0661L161.989 12.1567C161.935 12.3255 161.719 12.3986 161.584 12.2845C160.915 11.7278 160.115 11.4494 159.175 11.4494H159.18Z"
                            fill="white" />
                        <path
                            d="M168.412 15.5289V16.5876C168.412 16.8295 168.704 16.939 168.857 16.7519C169.617 15.8164 170.813 15.3236 172.449 15.2779C172.593 15.2779 172.714 15.392 172.714 15.538V16.656C172.714 16.7975 172.597 16.9116 172.458 16.9116C169.756 16.9755 168.412 18.0661 168.412 20.1835V25.9287C168.412 26.0747 168.291 26.1888 168.152 26.1888H167.05C166.906 26.1888 166.79 26.0747 166.79 25.9287V15.5243C166.79 15.3829 166.906 15.2688 167.05 15.2688H168.152C168.291 15.2688 168.412 15.3829 168.412 15.5243V15.5289Z"
                            fill="white" />
                        <path
                            d="M181.942 15.529V24.2951C181.942 24.4366 182.059 24.5552 182.194 24.5552H184.913C185.053 24.5552 185.165 24.6739 185.165 24.8153V25.9334C185.165 26.0794 185.048 26.1935 184.913 26.1935H177.353C177.213 26.1935 177.096 26.0794 177.096 25.9334V24.8153C177.096 24.6739 177.213 24.5552 177.353 24.5552H180.072C180.211 24.5552 180.324 24.4411 180.324 24.2951V17.1672C180.324 17.0258 180.207 16.9117 180.072 16.9117H177.888C177.748 16.9117 177.631 16.7976 177.631 16.6516V15.529C177.631 15.3875 177.748 15.2734 177.888 15.2734H181.686C181.83 15.2734 181.942 15.3875 181.942 15.529ZM180.585 11.997H181.69C181.834 11.997 181.946 11.8783 181.946 11.7369V10.0713C181.946 9.9298 181.839 9.81116 181.69 9.81116H180.585C180.445 9.81116 180.328 9.9298 180.328 10.0713V11.7369C180.328 11.8783 180.445 11.997 180.585 11.997Z"
                            fill="white" />
                        <path
                            d="M191.246 10.0666V19.175C191.246 19.3804 191.462 19.5036 191.633 19.394L198.178 15.3053C198.214 15.2779 198.259 15.2688 198.308 15.2688H199.531C199.782 15.2688 199.886 15.6019 199.675 15.7434L193.683 19.7135C193.543 19.8093 193.53 20.0192 193.665 20.1287L200.376 25.7279C200.56 25.8831 200.452 26.1888 200.214 26.1888H198.865C198.812 26.1888 198.758 26.1706 198.713 26.1341L191.66 20.5121C191.494 20.3797 191.251 20.4984 191.251 20.7128V25.9287C191.251 26.0747 191.134 26.1888 190.995 26.1888H189.889C189.75 26.1888 189.633 26.0747 189.633 25.9287V10.0666C189.633 9.92516 189.75 9.80652 189.889 9.80652H190.995C191.134 9.80652 191.251 9.92516 191.251 10.0666H191.246Z"
                            fill="white" />
                        <path
                            d="M214 19.0929V25.9333C214 26.0794 213.883 26.1935 213.748 26.1935H212.642C212.499 26.1935 212.386 26.0794 212.386 25.9333V25.5637C212.386 25.3629 212.17 25.2443 212 25.3447C211.011 25.9105 209.883 26.1935 208.624 26.1935C206.107 26.1935 204.857 25.1028 204.857 22.917C204.857 20.7312 207.284 19.4991 212.135 19.1157C212.274 19.1021 212.391 18.9834 212.373 18.842C212.256 17.5551 211.186 16.9117 209.163 16.9117C208.179 16.9117 207.195 17.2174 206.206 17.8243C206.066 17.911 205.878 17.8471 205.837 17.692L205.459 16.5603C205.419 16.4462 205.468 16.3184 205.563 16.2545C206.601 15.602 207.801 15.2734 209.159 15.2734C212.386 15.2734 214 16.5466 214 19.0929ZM206.475 22.917C206.475 24.0076 207.186 24.5552 208.624 24.5552C210.062 24.5552 211.218 24.2175 212.265 23.5422C212.341 23.4965 212.386 23.4098 212.386 23.3186V21.0187C212.386 20.8681 212.247 20.7449 212.099 20.7585C208.345 21.1327 206.475 21.8537 206.475 22.917Z"
                            fill="white" />
                    </g>
                    <defs>
                        <linearGradient id="paint0_linear_1_6121" x1="19.1754" y1="5.20675" x2="28.6193" y2="5.20675"
                            gradientUnits="userSpaceOnUse">
                            <stop stop-color="#005A96" />
                            <stop offset="1" stop-color="#359EBD" />
                        </linearGradient>
                        <linearGradient id="paint1_linear_1_6121" x1="30.9883" y1="15.1502" x2="34.3865" y2="15.1502"
                            gradientUnits="userSpaceOnUse">
                            <stop stop-color="#005A96" />
                            <stop offset="1" stop-color="#359EBD" />
                        </linearGradient>
                        <linearGradient id="paint2_linear_1_6121" x1="2.47681" y1="18.6686" x2="30.0983" y2="18.6686"
                            gradientUnits="userSpaceOnUse">
                            <stop stop-color="#005A96" />
                            <stop offset="1" stop-color="#359EBD" />
                        </linearGradient>
                        <linearGradient id="paint3_linear_1_6121" x1="0.00013863" y1="7.15061" x2="13.5839" y2="7.15061"
                            gradientUnits="userSpaceOnUse">
                            <stop stop-color="#005A96" />
                            <stop offset="1" stop-color="#359EBD" />
                        </linearGradient>
                        <linearGradient id="paint4_linear_1_6121" x1="13.9343" y1="22.917" x2="21.4094" y2="22.917"
                            gradientUnits="userSpaceOnUse">
                            <stop stop-color="#005A96" />
                            <stop offset="1" stop-color="#359EBD" />
                        </linearGradient>
                        <linearGradient id="paint5_linear_1_6121" x1="14.4062" y1="22.9261" x2="18.4877" y2="22.9261"
                            gradientUnits="userSpaceOnUse">
                            <stop stop-color="#005A96" />
                            <stop offset="1" stop-color="#359EBD" />
                        </linearGradient>
                        <linearGradient id="paint6_linear_1_6121" x1="11.2463" y1="22.6113" x2="24.3042" y2="22.6113"
                            gradientUnits="userSpaceOnUse">
                            <stop stop-color="#005A96" />
                            <stop offset="1" stop-color="#359EBD" />
                        </linearGradient>
                        <clipPath id="clip0_1_6121">
                            <rect width="214" height="36" fill="white" />
                        </clipPath>
                    </defs>
                </svg>